<svg class="img-fluid" id="outputsvg" xmlns="http://www.w3.org/2000/svg" style="transform: none; transform-origin: 50% 50%; cursor: move; max-height: none;" width="512" height="512" viewBox="0 0 5120 5120"><g id="lpjSb6ibrcbQhpCKehLQJv" fill="rgb(255,255,255)" style="transform: none;"><g style="transform: none;"><path id="pVGZ3x7rK" d="M1120 3710 l0 -250 1405 0 1405 0 0 250 0 250 -1405 0 -1405 0 0 -250z m480 5 l0 -175 -190 0 -190 0 0 168 c0 93 3 172 7 175 3 4 89 7 190 7 l183 0 0 -175z m558 -2 l2 -173 -190 0 -190 0 0 168 c0 93 3 172 7 176 4 3 88 5 187 4 l181 -3 3 -172z m560 0 l2 -173 -190 0 -190 0 0 175 0 175 188 -2 187 -3 3 -172z m562 2 l0 -175 -190 0 -190 0 0 175 0 175 190 0 190 0 0 -175z m554 0 l0 -170 -192 -3 -192 -2 0 168 c0 93 3 172 7 176 4 3 90 5 192 4 l186 -3 -1 -170z"></path><path id="p193SVWNQY" d="M1394 2850 c-70 -25 -124 -61 -168 -112 -48 -55 -70 -98 -90 -176 -20 -79 -20 -113 0 -199 29 -127 97 -214 212 -271 75 -36 78 -37 191 -37 104 1 122 3 173 27 32 15 80 48 107 73 46 43 101 131 101 162 0 10 -26 13 -110 13 -64 0 -110 -4 -110 -10 0 -15 -52 -61 -87 -76 -46 -20 -127 -18 -171 5 -48 24 -66 45 -93 105 -18 41 -21 63 -17 126 5 88 27 133 85 177 32 24 45 28 113 28 67 0 82 -3 117 -27 23 -15 44 -36 48 -48 6 -18 14 -20 116 -20 121 0 120 -1 90 67 -40 87 -135 167 -237 198 -68 21 -206 18 -270 -5z"></path><path id="p15TVL1tzg" d="M2110 2465 l0 -405 100 0 100 0 -2 403 -3 402 -97 3 -98 3 0 -406z"></path><path id="p1DW84QTWM" d="M2510 2465 l0 -405 100 0 100 0 163 245 162 244 3 -244 2 -245 100 0 100 0 0 405 0 405 -98 0 -99 0 -164 -246 -164 -247 -5 244 -5 244 -97 3 -98 3 0 -406z"></path><path id="pCAQMB2tE" d="M3442 2468 l3 -403 253 -3 252 -2 0 80 0 79 -152 3 -153 3 -3 78 -3 77 136 0 135 0 0 75 0 74 -132 3 -133 3 0 85 0 85 153 3 152 3 0 79 0 80 -255 0 -255 0 2 -402z"></path><path id="pl87S2237" d="M1120 1200 l0 -250 1405 0 1405 0 0 250 0 250 -1405 0 -1405 0 0 -250z m480 0 l0 -180 -190 0 -190 0 0 173 c0 96 3 177 7 180 3 4 89 7 190 7 l183 0 0 -180z m560 0 l0 -180 -190 0 -190 0 0 173 c0 96 3 177 7 180 3 4 89 7 190 7 l183 0 0 -180z m560 0 l0 -180 -190 0 -190 0 0 180 0 180 190 0 190 0 0 -180z m560 0 l0 -180 -190 0 -190 0 0 180 0 180 190 0 190 0 0 -180z m552 153 c2 -16 4 -95 3 -178 l-1 -150 -189 0 -190 0 -3 165 c-1 90 0 170 2 177 4 10 48 13 189 13 l185 0 4 -27z"></path></g></g></svg>